# xmcd CD database file
#
# Track frame offsets:
#	150
#	18586
#	46540
#	55873
#	76448
#	104041
#	130561
#	151910
#	173849
#	196592
#	215195
#	239463
#	260326
#
# Disc length: 3709 seconds
#
# Revision: 6
# Processed by: cddbd v1.5.2PL0 Copyright (c) Steve Scherf et al.
# Submitted via: CDex 1.70beta2
#
DISCID=a80e7b0d
DTITLE=Schiller - Atemlos (Super Deluxe Edition) Disc 2
DYEAR=2010
DGENRE=New Age
TTITLE0=La Mer
TTITLE1=Sunrise (Mit Lenka)
TTITLE2=Augenblick (Mit Anna Maria Mühe)
TTITLE3=I Will Follow You (Mit Henree)
TTITLE4=Opium (Mit Jaki Liebezeit)
TTITLE5=The Fire (Mit Kate Havnevik)
TTITLE6=Un Solo Minuto (Mit Odette Di Maio)
TTITLE7=Salton Sea
TTITLE8=Under My Skin (Mit Kim Sanders)
TTITLE9=Hochland
TTITLE10=Himmelblau
TTITLE11=Always You (Mit Anggun)
TTITLE12=Reprise
EXTD=YEAR: 2010
EXTT0=
EXTT1=
EXTT2=
EXTT3=
EXTT4=
EXTT5=
EXTT6=
EXTT7=
EXTT8=
EXTT9=
EXTT10=
EXTT11=
EXTT12=
PLAYORDER=
